<svg width="13" height="16" viewBox="0 0 13 16" fill="none" xmlns="http://www.w3.org/2000/svg">
<path d="M6.04995 0.0504057C2.74102 0.0504057 0.0500488 2.57322 0.0500488 5.67538V6.05029C0.0500488 7.34805 0.486499 8.61354 1.2969 9.66538L5.09226 14.59C5.31431 14.8784 5.67082 15.05 6.05012 15.05C6.43209 15.05 6.79074 14.8723 7.00636 14.5769L10.8501 9.30934C11.6313 8.23882 12.05 6.97195 12.05 5.67496C12.05 2.5728 9.35908 0.0499878 6.05015 0.0499878L6.04995 0.0504057ZM6.04995 0.800359C8.92654 0.800359 11.25 2.97854 11.25 5.67544C11.25 6.82139 10.8809 7.94063 10.1906 8.88634L6.34521 14.1539C6.27811 14.2458 6.1687 14.3004 6.0499 14.3004C5.92682 14.3004 5.81258 14.246 5.74053 14.1525L1.94517 9.22631C1.23307 8.30195 0.849794 7.19065 0.849794 6.05045V5.67554C0.849794 2.9787 3.17316 0.800456 6.04982 0.800456L6.04995 0.800359Z" fill="black" stroke="black" stroke-width="0.1"/>
<path d="M6.05 2.67517C4.2874 2.67517 2.8501 4.02279 2.8501 5.67511C2.8501 7.32757 4.28754 8.67506 6.05 8.67506C7.8126 8.67506 9.2499 7.32744 9.2499 5.67511C9.2499 4.02266 7.81246 2.67517 6.05 2.67517ZM6.05 3.42512C7.38016 3.42512 8.44996 4.42807 8.44996 5.67511C8.44996 6.92215 7.38016 7.9251 6.05 7.9251C4.71984 7.9251 3.65004 6.92215 3.65004 5.67511C3.65004 4.42807 4.71984 3.42512 6.05 3.42512Z" fill="black" stroke="black" stroke-width="0.1"/>
</svg>
